<?xml version="1.0" encoding="UTF-8"?>
<!DOCTYPE svg PUBLIC "-//W3C//DTD SVG 1.1//EN" "http://www.w3.org/Graphics/SVG/1.1/DTD/svg11.dtd">
<svg xmlns="http://www.w3.org/2000/svg" version="1.1" width="977px" height="942px" style="shape-rendering:geometricPrecision; text-rendering:geometricPrecision; image-rendering:optimizeQuality; fill-rule:evenodd; clip-rule:evenodd" xmlns:xlink="http://www.w3.org/1999/xlink">
<g><path style="opacity:1" fill="#d41447" d="M 482.5,103.5 C 475.598,92.3919 466.264,84.0586 454.5,78.5C 453.456,77.3774 452.79,76.0441 452.5,74.5C 463.139,50.6476 473.806,27.1476 484.5,4C 488.281,2.90209 491.447,3.73542 494,6.5C 499.968,18.799 505.468,31.299 510.5,44C 513.906,49.8135 517.24,55.6468 520.5,61.5C 520.291,62.086 519.957,62.586 519.5,63C 523.877,66.5902 525.211,71.0902 523.5,76.5C 519.5,78.8333 515.5,81.1667 511.5,83.5C 509.349,84.9053 507.682,86.7386 506.5,89C 505.552,89.4828 504.552,89.6495 503.5,89.5C 502.003,93.8004 499.669,97.6338 496.5,101C 495.797,105.224 494.13,109.391 491.5,113.5C 489.955,114.452 488.288,114.785 486.5,114.5C 486.109,110.46 484.776,106.793 482.5,103.5 Z"/></g>
<g><path style="opacity:0.999" fill="#d31246" d="M 559.5,92.5 C 574.824,91.8595 589.824,93.6928 604.5,98C 632.543,106.463 659.71,117.296 686,130.5C 694.18,135.99 702.68,140.824 711.5,145C 728.775,156.618 745.775,168.784 762.5,181.5C 762.5,182.5 762.5,183.5 762.5,184.5C 763.552,184.351 764.552,184.517 765.5,185C 775.85,194.003 785.517,203.67 794.5,214C 795.448,214.483 796.448,214.649 797.5,214.5C 798.819,217.802 800.652,220.802 803,223.5C 826.626,250.069 845.626,279.402 860,311.5C 867.775,344.911 857.608,370.744 829.5,389C 819.933,391.724 810.599,395.057 801.5,399C 796.634,403.719 796.301,408.719 800.5,414C 802.366,414.985 804.366,415.485 806.5,415.5C 811.903,414.302 817.236,412.802 822.5,411C 849.375,406.064 873.041,412.564 893.5,430.5C 905.288,443.166 912.288,458.166 914.5,475.5C 920.728,561.164 903.728,640.997 863.5,715C 859.332,721.417 854.999,727.751 850.5,734C 850.833,734.333 851.167,734.667 851.5,735C 846.5,741.332 841.5,747.665 836.5,754C 836.833,754.333 837.167,754.667 837.5,755C 823.035,772.299 807.702,788.799 791.5,804.5C 788.028,806.738 784.362,808.738 780.5,810.5C 775.336,811.498 770.336,812.998 765.5,815C 752.027,817.259 739.36,815.259 727.5,809C 725.5,808.667 723.5,808.333 721.5,808C 722.167,807.333 722.833,806.667 723.5,806C 714.561,800.06 706.561,793.06 699.5,785C 691.581,781.267 686.581,783.601 684.5,792C 685.789,798.404 688.289,804.238 692,809.5C 702.526,841.42 696.359,869.253 673.5,893C 668.562,897.55 663.062,901.383 657,904.5C 588.5,933.812 517,944.145 442.5,935.5C 421.168,933.5 400.168,929.667 379.5,924C 379.833,923.667 380.167,923.333 380.5,923C 377.657,922.554 374.824,922.054 372,921.5C 349.474,912.991 327.308,903.491 305.5,893C 300.958,889.365 296.624,885.531 292.5,881.5C 291.614,880.675 291.281,879.675 291.5,878.5C 290.5,878.5 289.5,878.5 288.5,878.5C 285.904,873.207 283.238,867.874 280.5,862.5C 274.268,843.597 275.435,825.264 284,807.5C 287.083,802.412 290.917,797.912 295.5,794C 290.658,790.324 286.325,786.158 282.5,781.5C 274.314,789.078 265.98,796.412 257.5,803.5C 259.359,805.192 261.359,806.692 263.5,808C 257.833,808.333 252.167,808.667 246.5,809C 203.47,821.769 170.804,809.435 148.5,772C 145.235,769.108 142.235,765.941 139.5,762.5C 126.228,743.253 114.394,723.587 104,703.5C 84.1565,662.429 70.8232,618.762 64,572.5C 63.4416,557.621 62.9416,542.455 62.5,527C 62.4663,511.534 62.9663,496.367 64,481.5C 65.5053,471.471 67.3387,461.471 69.5,451.5C 73.7474,440.553 80.0808,431.053 88.5,423C 103.505,412.396 120.339,407.23 139,407.5C 147.341,409.839 155.674,412.172 164,414.5C 172.009,413.482 174.676,409.149 172,401.5C 170.833,400.333 169.667,399.167 168.5,398C 156.945,393.891 146.278,388.224 136.5,381C 110.06,355.099 104.226,324.932 119,290.5C 124.899,282.258 130.732,273.258 136.5,263.5C 141.197,258.585 145.53,253.418 149.5,248C 149.167,247.667 148.833,247.333 148.5,247C 156.394,238.942 163.727,230.442 170.5,221.5C 172.378,219.126 174.712,217.292 177.5,216C 177.167,215.667 176.833,215.333 176.5,215C 177.973,214.29 178.64,213.124 178.5,211.5C 179.5,211.5 180.5,211.5 181.5,211.5C 181.5,210.5 181.5,209.5 181.5,208.5C 182.5,208.5 183.5,208.5 184.5,208.5C 184.5,207.5 184.5,206.5 184.5,205.5C 188.127,205.379 190.46,203.545 191.5,200C 195.591,197.936 198.925,194.936 201.5,191C 243.191,155.071 290.191,128.071 342.5,110C 366.285,102.458 390.618,97.6245 415.5,95.5C 431.352,95.6608 445.019,100.994 456.5,111.5C 457.386,112.325 457.719,113.325 457.5,114.5C 458.552,114.351 459.552,114.517 460.5,115C 470.811,126.793 476.811,140.959 478.5,157.5C 476.388,164.271 477.388,170.437 481.5,176C 487.923,179.394 493.257,178.061 497.5,172C 495.636,138.553 509.47,114.053 539,98.5C 545.91,95.9096 552.743,93.9096 559.5,92.5 Z M 285.5,780.5 C 291.921,778.402 295.754,780.735 297,787.5C 293.222,785.03 289.389,782.697 285.5,780.5 Z"/></g>
<g><path style="opacity:0.024" fill="#d12d56" d="M 482.5,103.5 C 481.833,104.167 481.833,104.167 482.5,103.5 Z"/></g>
<g><path style="opacity:1" fill="#fefefe" d="M 489.5,244.5 C 490.552,244.351 491.552,244.517 492.5,245C 521.167,273.667 549.833,302.333 578.5,331C 574,335.5 569.5,340 565,344.5C 564.333,345.5 564.333,346.5 565,347.5C 599.167,381.667 633.333,415.833 667.5,450C 668.5,450.667 669.5,450.667 670.5,450C 675.027,445.126 679.693,440.792 684.5,437C 713.5,466 742.5,495 771.5,524C 728,567.5 684.5,611 641,654.5C 611.653,625.32 582.486,595.986 553.5,566.5C 562.833,557.833 571.833,548.833 580.5,539.5C 576.349,534.848 572.015,530.348 567.5,526C 566.5,525.333 565.5,525.333 564.5,526C 540.667,549.833 516.833,573.667 493,597.5C 492.333,598.5 492.333,599.5 493,600.5C 497.348,605.015 501.848,609.349 506.5,613.5C 516.174,604.326 525.674,594.992 535,585.5C 563.992,614.659 593.159,643.659 622.5,672.5C 578.847,716.653 535.014,760.653 491,804.5C 461.653,775.32 432.486,745.986 403.5,716.5C 408.152,712.349 412.652,708.015 417,703.5C 417.667,702.5 417.667,701.5 417,700.5C 382.833,666.333 348.667,632.167 314.5,598C 313.5,597.333 312.5,597.333 311.5,598C 307.5,602 303.5,606 299.5,610C 298.5,610.667 297.5,610.667 296.5,610C 267.793,581.627 239.459,552.96 211.5,524C 254.64,479.693 298.307,435.86 342.5,392.5C 371.543,421.675 400.543,450.842 429.5,480C 419.986,489.347 410.652,498.847 401.5,508.5C 407.167,514.833 413.167,520.833 419.5,526.5C 444.153,502.347 468.653,478.014 493,453.5C 488.205,446.525 482.372,440.192 475.5,434.5C 466.181,443.319 457.014,452.319 448,461.5C 418.793,432.627 389.959,403.46 361.5,374C 403.995,330.672 446.661,287.505 489.5,244.5 Z"/></g>
<g><path style="opacity:1" fill="#d41346" d="M 66.5,341.5 C 72.8333,341.5 79.1667,341.5 85.5,341.5C 86.4609,347.075 87.7942,352.575 89.5,358C 93.0674,364.314 96.734,370.48 100.5,376.5C 103.211,377.695 105.544,379.528 107.5,382C 108.793,382.49 110.127,382.657 111.5,382.5C 111.739,384.467 111.406,386.301 110.5,388C 94.4128,388.944 80.4128,394.777 68.5,405.5C 67.6143,406.325 67.281,407.325 67.5,408.5C 65.4727,408.662 63.4727,408.495 61.5,408C 60.0997,406.562 58.433,405.729 56.5,405.5C 56.5,404.5 56.5,403.5 56.5,402.5C 45.4692,394.313 35.1358,385.147 25.5,375C 24.552,374.517 23.552,374.351 22.5,374.5C 21.8363,372.133 20.503,370.133 18.5,368.5C 14.4587,364.824 10.4587,361.157 6.5,357.5C 5.67504,356.614 4.67504,356.281 3.5,356.5C 3.5,354.5 3.5,352.5 3.5,350.5C 14.0245,348.421 24.6911,347.254 35.5,347C 45.9909,345.403 56.3243,343.57 66.5,341.5 Z"/></g>
<g><path style="opacity:1" fill="#d41346" d="M 888.5,344.5 C 895.175,344.334 901.842,344.5 908.5,345C 910.087,345.862 911.754,346.529 913.5,347C 932.659,348.301 951.659,350.468 970.5,353.5C 970.799,355.604 970.466,357.604 969.5,359.5C 963.221,365.113 957.221,371.113 951.5,377.5C 950.675,378.386 949.675,378.719 948.5,378.5C 948.5,379.5 948.5,380.5 948.5,381.5C 947.5,381.5 946.5,381.5 945.5,381.5C 945.5,382.5 945.5,383.5 945.5,384.5C 944.5,384.5 943.5,384.5 942.5,384.5C 942.5,385.5 942.5,386.5 942.5,387.5C 941.127,387.343 939.793,387.51 938.5,388C 932.346,393.988 926.346,400.154 920.5,406.5C 918.165,408.215 915.665,409.548 913,410.5C 911.833,410.167 910.667,409.833 909.5,409.5C 897.72,397.845 883.387,391.845 866.5,391.5C 866.201,389.396 866.534,387.396 867.5,385.5C 879.616,375.141 886.616,361.474 888.5,344.5 Z"/></g>
<g><path style="opacity:0.027" fill="#d02754" d="M 63.5,409.5 C 64.8333,410.167 64.8333,410.167 63.5,409.5 Z"/></g>
<g><path style="opacity:1" fill="#d41346" d="M 249.5,829.5 C 251.167,829.5 252.833,829.5 254.5,829.5C 249.576,847.482 251.576,864.648 260.5,881C 260.265,881.873 259.931,882.707 259.5,883.5C 241.2,893.855 222.534,904.688 203.5,916C 199.95,917.692 196.45,919.525 193,921.5C 190.901,922.287 188.734,922.62 186.5,922.5C 186.466,918.141 186.799,913.808 187.5,909.5C 191.344,886.714 195.344,864.047 199.5,841.5C 208.839,841.666 218.173,841.5 227.5,841C 233.344,839.121 239.011,836.788 244.5,834C 246.618,832.951 248.284,831.451 249.5,829.5 Z"/></g>
<g><path style="opacity:1" fill="#d41346" d="M 716.5,832.5 C 718.604,832.201 720.604,832.534 722.5,833.5C 732.736,839.743 743.902,843.077 756,843.5C 761.05,841.908 766.216,841.242 771.5,841.5C 775.751,863.814 780.251,886.147 785,908.5C 785.994,913.118 786.494,917.785 786.5,922.5C 783.272,922.701 780.105,922.367 777,921.5C 755.018,908.798 733.852,897.465 713.5,887.5C 713.929,881.873 715.596,876.54 718.5,871.5C 719.011,865.829 720.011,860.329 721.5,855C 720.128,847.347 718.462,839.847 716.5,832.5 Z"/></g>
</svg>
