<?xml version="1.0" encoding="utf-8"?>
<!-- Generator: Adobe Illustrator 27.5.0, SVG Export Plug-In . SVG Version: 6.00 Build 0)  -->
<svg version="1.1"
	 id="svg14" xmlns:svg="http://www.w3.org/2000/svg" xmlns:inkscape="http://www.inkscape.org/namespaces/inkscape" xmlns:sodipodi="http://sodipodi.sourceforge.net/DTD/sodipodi-0.dtd"
	 xmlns="http://www.w3.org/2000/svg" xmlns:xlink="http://www.w3.org/1999/xlink" x="0px" y="0px" viewBox="0 0 725.5 699.5"
	 style="enable-background:new 0 0 725.5 699.5;" xml:space="preserve">
<style type="text/css">
	.st0{fill:none;stroke:#000000;stroke-width:0.75;stroke-linejoin:round;stroke-miterlimit:1.5;}
</style>
<path id="path856" class="st0" d="M335.1,698.8c-30.6-4.8-43.7-7.6-57.8-12.2c-29.1-9.6-48.8-19.1-58-28.1
	c-7-6.8-10.8-14.5-13.3-26.8c-1.1-5.3-1.1-7-0.4-11.5c1.8-10.6,3.5-14.5,10.2-22.9c4.9-6.2,5.6-7.6,5.6-10.7c0-2.6-2.6-5.8-5.5-6.8
	c-2.3-0.8-7.1,2.1-15.8,9.7c-9.4,8.1-16.2,12.6-23,14.8c-6.3,2.1-23.8,2.3-31.3,0.3c-14-3.7-23.2-11.1-37.6-30.4
	c-26.6-35.4-43.9-71.2-54.6-113c-6.4-25.1-8.6-42.6-8.6-70.5c0-22.6,1.6-40,4.9-52.1c4.3-16,15.4-27.7,31.5-33
	c7-2.3,19.8-1.9,30.3,0.9c9.8,2.7,11.2,2.6,14.3-0.5c5.2-5.2,2.8-9.7-8.5-15.1c-20.8-10-31.1-22.1-34.7-40.9
	c-1.7-8.8-1.5-12.9,0.9-22.9c2.6-10.6,8.8-21.3,23.7-41c18.6-24.5,36.9-42.7,65.2-64.4c12-9.2,40.7-25.4,61.8-34.7
	c5.2-2.3,21.6-7.8,31.6-10.6c14-3.9,40.7-8.2,46.3-7.4c8.2,1.2,11.8,2.2,17.1,4.8c10.7,5.2,18.6,13.9,23,25.4
	c1.8,4.8,2.3,7.3,2.8,15.8c0.3,5.6,1,10.9,1.5,11.8c1.8,3.3,6.8,4.8,10.9,3.2c3.3-1.3,4.2-3.7,5.4-14.8c0.6-5.7,1.4-11.7,1.9-13.4
	c3-10.7,13.5-23,24.5-28.7c8.8-4.6,15.7-6.2,26.7-6.2c8,0,10.3,0.3,20.7,3c41.6,10.5,82.3,31.3,118.6,60.7
	c10.5,8.5,32.6,30.8,40.2,40.6c16,20.6,27.5,39,34.1,54.3c3.6,8.4,3.9,9.6,4.3,16.6c0.5,10.4-0.6,16.7-4.3,24.3
	c-3.6,7.3-10.7,15.3-16.4,18.4c-2.1,1.1-7.4,3.4-11.9,5.1c-9.2,3.4-14.1,6.1-15.2,8.2c-1.4,2.6-0.9,6.7,1.1,8.7
	c2.4,2.4,6.7,2.4,16.2,0c15.3-4,25.9-3.1,39.6,3.4c6.7,3.2,8.5,4.5,13.9,9.9c7.1,7.2,11,13.5,13.7,22c2.8,8.8,3.6,20,3.1,45
	c-0.4,23.1-1.7,34.3-6.2,57c-11.3,56.4-38.7,108.3-77,145.6c-11.4,11.1-13.4,12.5-22.7,15.6c-4.8,1.6-7.1,1.9-14.3,1.9
	c-7.7,0-9.1-0.2-12.8-1.9c-6.2-2.8-13.4-7.9-21.3-15c-3.9-3.5-8.1-6.7-9.4-7c-4.4-1.2-9.4,2.3-9.4,6.7c0,1.1,1.3,5.4,3,9.3
	c4.3,10.5,6,18.1,6,26.3c0,18.1-8.9,35.1-23.7,45.1c-14.5,9.8-54.1,21.6-90.7,27C397.5,698.6,340.5,699.7,335.1,698.8L335.1,698.8z
	 M432.3,468.2c-17.9-17.7-33-32.2-33.5-32.2c-0.5,0-5.6,4.5-11.4,10.1L377,456.2l-5.1-5.3l-5.1-5.3l10.8-11
	c30.4-30.9,43.9-44.4,44.5-44.4c0.4,0,3,2.3,5.8,5l5.1,5l-10.3,10.3L412.4,421l33,33l33,33l48.9-48.9l48.9-48.9l-33-33l-33-33
	l-5.6,5.6l-5.6,5.6l-39.2-39.2l-39.2-39.2l5.6-5.6l5.6-5.6l-32.6-32.6c-17.9-17.9-33-32.6-33.4-32.6s-22.6,21.9-49.3,48.6L268,276.7
	l33,33l33,33l10-9.9c5.5-5.5,10.3-9.9,10.7-9.9c0.4,0,3.6,2.9,7.1,6.4l6.3,6.4l-27.9,27.9l-27.9,27.9l-6.5-6.6l-6.5-6.6l3.7-3.9
	c2-2.1,6.7-7,10.3-10.8l6.6-6.9l-16.5-17.1c-9.1-9.4-23.8-24.3-32.7-33.2l-16.2-16.1L205,339.7l-49.5,49.5l33,33l33,33l5.6-5.6
	l5.6-5.6l39.2,39.2l39.2,39.2l-5.6,5.6l-5.6,5.6l33,33l33,33l49.5-49.6l49.5-49.6L432.3,468.2z M565,678.2
	c-10.1-5.4-19.9-10.7-21.8-11.8c-1.9-1.1-4.6-2.6-6.2-3.4c-3.5-1.8-4-3.2-2.2-7.4c3.6-8.6,4.6-20.5,2.5-29.4
	c-0.6-2.4-0.9-4.5-0.6-4.7s2.7,0.7,5.5,2c9.2,4.3,10.6,4.6,21.8,5c6.5,0.2,10.9,0.7,11.4,1.2c0.6,0.8,11.4,53,11.6,56.3
	C587.2,689.5,583.6,688.2,565,678.2L565,678.2z M138.5,682.5c0.4-4.2,6.6-39.3,8.7-49.7l0.8-3.8l9.8-0.5c8.9-0.4,10.4-0.7,16.3-3.1
	c3.6-1.5,7.4-3.3,8.5-4.1c3.9-2.9,3.9-2.8,4,9.7c0,11.3,0.1,11.8,2.7,19.6l2.7,8l-8,4.5c-4.4,2.5-14.2,8-21.8,12.3
	c-18.4,10.4-21.1,11.8-22.8,11.8C138.2,687.3,138.1,686.9,138.5,682.5L138.5,682.5z M675.3,299.1c-8.2-5.5-12.8-7.5-19.2-8.5
	c-7-1.1-8.6-1.5-8.6-2.1c0-0.3,2-2.9,4.5-5.8c5.3-6.2,9.1-13.1,10.9-19.9c0.7-2.7,1.6-5.5,2-6.2c0.8-1.5,4.2-1.7,12.2-0.5
	c2.9,0.4,10.3,1.3,16.5,1.9c20.8,2,28.6,3.2,31.1,4.8c1.4,0.9,0,2.4-20.7,22.2c-13.9,13.3-19.8,18.4-21.6,18.4
	C682,303.3,678.8,301.4,675.3,299.1L675.3,299.1z M38.4,297c-3.5-3-12.1-10.9-19.2-17.6c-7.1-6.6-14.3-13.2-15.9-14.5
	c-3.5-2.8-3.8-4.2-0.9-4.8c1.1-0.2,2.6-0.6,3.2-0.8c0.6-0.2,5.2-0.8,10.1-1.4s15.4-1.9,23.2-2.9c7.8-1,16-1.9,18.2-1.9h4l0.8,3.2
	c2.7,10.6,5.6,15.8,12.9,23.2c3.2,3.3,5.7,6.2,5.5,6.6c-0.2,0.3-2.7,1-5.4,1.5c-9.5,1.8-17,5.3-25.1,12.1c-1.9,1.6-3.8,2.9-4.2,2.9
	C45,302.5,41.9,300.1,38.4,297L38.4,297z M360.9,75.9c-3.9-6.8-10.5-13.7-17.4-18.4c-4.8-3.3-5.2-3.7-4.8-5.8
	c0.2-1.2,4.6-11.4,9.7-22.5C353.6,18,358.7,7,359.7,4.6c1.8-4.1,2.1-4.3,4.3-4.1c2.2,0.2,2.6,1,12.5,21.2
	c5.6,11.6,11.1,23.1,12.3,25.7l2.1,4.7l-3.9,2.8c-11.5,8.3-12.9,9.8-16.9,17.5c-2.1,4-4.3,7.7-4.9,8.2
	C364.3,81.2,363.5,80.4,360.9,75.9L360.9,75.9z"/>
</svg>
