<?xml version="1.0" encoding="UTF-8"?>
<svg id="a" data-name="Layer 1" xmlns="http://www.w3.org/2000/svg" xmlns:xlink="http://www.w3.org/1999/xlink" viewBox="0 0 637.4 190.33">
  <defs>
    <style>
      .e {
        mask: url(#b);
      }

      .f {
        fill: #fff;
      }

      .f, .g {
        fill-rule: evenodd;
      }
    </style>
    <mask id="b" data-name="mask" x="0" y="0" width="637.4" height="190.33" maskUnits="userSpaceOnUse">
      <g id="c" data-name="b">
        <path id="d" data-name="a" class="f" d="m0,190.33h637.4V0H0v190.33Z"/>
      </g>
    </mask>
  </defs>
  <path class="g" d="m230,19.67h9.21v50.74h20.79v9.26h-30V19.67Z"/>
  <g>
    <path class="g" d="m273.75,53.18h18.85v-.47c-.1-.3-.15-.62-.15-.94v-.31c-.24-.49-.4-1.02-.47-1.56-1.92-4.46-5.09-6.71-9.51-6.74-5.56,1.33-8.47,4.67-8.73,10.02Zm28.37-.16l.15,2.35c.11.14.16.29.16.47v4.7h-28.51c.59,5.32,3.3,8.46,8.1,9.4.78.08,1.55.11,2.3.11,3.92,0,7.26-1.29,10.01-3.87.34.57.76,1.04,1.25,1.41l.15.47.46.47c.37.34.67.66.94.96.26.3.47.61.62.92.18.1.28.21.31.31l2.19,2.5c-4.93,4.15-10.2,6.23-15.78,6.23-.98,0-1.95-.07-2.92-.2-1-.13-1.98-.31-2.96-.55-8.99-3-13.92-9.48-14.8-19.43l-.02-.78c0-.25-.02-.5-.02-.75,0-13.6,6.09-21.34,18.27-23.22,12.1.42,18.81,6.57,20.1,18.48h0Z"/>
    <g class="e">
      <path class="g" d="m311.29,78.4h9.5v-42.76h-9.5s0,42.76,0,42.76Zm10.44-55.3v.51c0,2.17-.68,3.93-2.02,5.29-1.43.7-2.74,1.05-3.93,1.05-2.08,0-3.73-1.14-4.95-3.4-.22-.79-.33-1.61-.35-2.43,0-2.66,1.47-4.47,4.4-5.4h.39c3.3,0,5.45,1.46,6.46,4.38h0Zm28.3,21h-.7l-3.43,1.25c-2.57,2.9-3.86,6.07-3.86,9.52,0,.57.04,1.16.12,1.76.68,5.92,3.79,9,9.35,9.24,5.53-.7,8.3-4.11,8.3-10.22v-.58c0-.21-.01-.42-.04-.63-.16-6.92-3.33-10.42-9.51-10.49-.1.1-.18.16-.23.16m9.89-5.49v-2.98h9.35v43.55l-.15,1.72-.16.31-.15.94-.62,1.88-.47.94-.62.94c-.76,1.34-1.64,2.38-2.65,3.14l-.62.78-3.27,1.56c-3.27.84-6.63,1.27-10.01,1.29-5.67.05-11.25-1.43-16.17-4.27l.31-.63.78-1.72.62-1.57.15-.47.32-.62c.25-.66.56-1.29.93-1.88l.31-1.09c4.18,2.14,8.06,3.21,11.65,3.21,3.25,0,6.27-.86,9.08-2.59l.15-.47c.65-.91,1.06-1.8,1.25-2.66v-6.57c-3.35,2.51-6.83,3.76-10.44,3.76-1.61,0-3.27-.26-4.99-.78-5.74-2.27-9.38-6.14-10.9-11.59-.43-1.36-.77-2.74-1-4.15-.22-1.32-.32-2.66-.33-4,0-3.7.9-7.2,2.72-10.49,2.93-5.46,7.2-8.59,12.78-9.4h.58c4.52,0,8.38,1.31,11.57,3.91m22.87-19.89h9.5v20.36c3.4-3.08,7.08-4.62,11.03-4.62,1.17,0,2.33.13,3.47.39,5.43,1.38,8.96,4.52,10.6,9.4l.15,1.1c.1.29.15.6.15.94v32.11h-9.51v-27.88l-.31-1.25v-.48l-.47-1.09c-.34-.48-.61-1-.78-1.56-1.21-1.13-2.64-1.98-4.21-2.51-4.44.08-7.62,2.01-9.51,5.8v.47c-.13.36-.25.7-.37,1-.11.28-.19.58-.25.88v26.62h-9.51V18.72Zm-155.92,90.64h10.28v23.34h26.49v-23.34h10.28v59.83h-10.28v-27.25h-26.49v27.25h-10.28v-59.83Zm80.83,40.57h-.94c-.44.1-.88.15-1.32.16h-.24l-.62.16h-.47c-.13.1-.3.16-.46.16h-.47l-2.49.62h-.47c-.73.42-1.35.68-1.87.78-1.69,1.62-2.53,3.18-2.53,4.7,0,1.38.69,2.74,2.07,4.07,2,1.23,3.95,1.84,5.84,1.84,2.42,0,4.73-.98,6.94-2.93.13-.45.34-.87.62-1.25l.15-.47-.15-.62v-7.36h-3.12c-.13.11-.3.16-.47.16m9.97-19.9l.46.94c1.22,1.51,2,3.08,2.34,4.7.1.68.18,1.31.23,1.9.05.59.07,1.1.07,1.55v20.67c.96,1.91,2.36,3.06,4.21,3.45l-.32.47c-.1.18-.21.28-.31.31l-.15.47-.31.31c-.23.52-.54,1-.93,1.41-.37.97-.83,1.7-1.4,2.19-.36.81-.78,1.6-1.25,2.35-3.03-.79-5.42-2.2-7.16-4.23h-.46c-3.35,2.43-6.81,3.64-10.37,3.64-1.92,0-3.82-.32-5.69-.98-5.59-2.01-8.96-5.66-10.13-10.97v-.2c0-10.1,5.89-15.15,17.65-15.15h.12c.24-.11.51-.16.77-.16l.47-.16h1.09l.46-.16h.47l3.89-.47c.05-.26.08-.52.08-.78v-.78c0-4.36-2.3-6.54-6.9-6.54-3.19,0-7.57,1.08-13.12,3.25l-.62-1.41-.31-.94-.31-.31-.15-.31-.31-.94c-.27-.44-.48-.91-.62-1.41-.51-.65-.88-1.4-1.09-2.19l.47-.16.31-.16.46-.16.31-.31h.46c.1-.1.2-.15.28-.15h.04c.94-.5,1.77-.87,2.49-1.1l.78-.16c.57-.26,1.09-.42,1.56-.47l1.25-.31c.9-.36,1.78-.57,2.64-.62l3.43-.63c.52-.05,1.01-.1,1.5-.14.48-.04.95-.06,1.42-.06,4.96,0,9.03,1.63,12.19,4.9m51.47,6.89l-1.72.62c-.38.31-.8.57-1.25.78l-.3.15-.93.32c-.36.31-.79.53-1.25.62l-2.49,1.41c-2.26-4.44-5.49-6.66-9.66-6.66-.72,0-1.51.08-2.34.24l-.47.31-.47.16-1.72.94c-.42.5-.81.94-1.17,1.34-.36.39-.7.73-1.01,1.01-1.64,3.37-2.46,6.6-2.46,9.72,0,3.29.92,6.47,2.77,9.55,1.95,2.54,4.32,3.8,7.13,3.8h.42c.14,0,.27-.01.41-.03,4.24-.68,7.15-2.88,8.73-6.58l1.55.94.62.31c.57.16.98.31,1.25.47l.62.31.32.31,3.42,1.56c-4.16,7.39-9.88,11.08-17.18,11.08-.57,0-1.16-.03-1.75-.07-.6-.05-1.2-.12-1.8-.2-9.3-1.95-14.59-7.85-15.89-17.7-.15-1.3-.23-2.61-.23-3.92,0-4.62,1.06-8.8,3.2-12.53,3.24-5.87,8.22-9.01,14.95-9.4,8.91.21,15.14,3.91,18.7,11.13m7.61-27.73h9.5v33.52l.78-.63.62-.78.93-.94.32-.16c.1-.19.21-.29.31-.31l1.72-1.88.47-.62,1.56-1.41c.42-.61.95-1.14,1.56-1.57l.93-.94c.34-.5.7-.86,1.09-1.09l.93-.94.31-.47.47-.31.31-.47.31-.31.47-.31.15-.31c.47-.63.93-1.15,1.4-1.57l.32-.16.56-.7c.16-.2.33-.38.53-.55h12.47l-.16.31-.31.31-.31.16-.15.31-.32.15-.56.71c-.16.2-.33.38-.53.55l-.78.62-.47.78-.32.16c-.1.19-.21.28-.31.31-.81,1.01-1.59,1.8-2.34,2.35-.11.18-.21.28-.32.31-.61.84-1.34,1.58-2.18,2.19l-.47.62-1.09.94-.47.62-.78.78-.62.47-.31.47-.47.31-.15.31-.47.31-.78.78-.15.31-.32.16c-.43.61-.95,1.14-1.55,1.56l.47,1.09.62.94.47.47.15.31c.36.5.62.91.78,1.25l.47.47.15.47c.1.08.15.16.15.24v.08c.78.86,1.3,1.65,1.56,2.35.78.86,1.3,1.65,1.56,2.35l.62.62.32.78.62.62c.37.66.79,1.29,1.25,1.88l.47.62.47.78.47.62.31.63.47.62,2.5,3.76.15.47.32.15.31.47c.49.73.92,1.41,1.29,2.04.36.63.67,1.2.9,1.73h-10.29l-.47-.94s-.08-.09-.12-.14c-.03-.04-.04-.09-.04-.14v-.04c-.65-.72-1.23-1.51-1.72-2.35l-.47-.62-.47-.79c-.23-.32-.45-.66-.64-1.01-.16-.29-.31-.57-.45-.87l-.47-.46-.47-.63-.31-.62-.47-.62-.47-.78c-.56-.67-1.03-1.41-1.4-2.19l-.47-.62c-.35-.36-.61-.78-.78-1.25l-.47-.47-.62-1.09-1.25-1.88s-.08-.09-.12-.14c-.03-.04-.04-.09-.04-.14v-.04c-.45-.49-.87-1.02-1.25-1.56-.1.19-.2.28-.31.31l-.31.62-1.4,1.25c-.11.19-.21.29-.32.31l-.15.31-.94.78c-.57.94-1.25,1.67-2.02,2.19v13.63h-9.51v-59.84h0Zm76.67,22.24l-.47.62-.47.47-.47.31-.62.94-.31.31-.32.16c-.34.47-.65.83-.93,1.1l-2.02,2.35c-4.31-2.8-7.89-4.2-10.71-4.2s-5.05,1.45-6.43,4.35c.05,1.7.72,2.95,2.02,3.76.57.15.98.31,1.25.47,1.01.16,1.84.36,2.49.63,9.84.73,15.35,4.7,16.52,11.9.06.31.08.62.08.92v.88c0,5.25-2.21,9.19-6.62,11.83-2.99,1.4-6.25,2.13-9.55,2.15-6.07,0-12.14-2.59-18.19-7.78l.31-.63.78-.78c.52-.63.98-1.1,1.4-1.42.11-.18.21-.28.32-.31l.31-.47c.1-.19.21-.28.31-.31l.16-.31.31-.16,2.02-2.35c3.84,3.66,7.87,5.48,12.08,5.48,1.76,0,3.55-.31,5.37-.94.47-.63.93-1.1,1.4-1.41.16-.62.23-1.22.23-1.77.03-1.27-.44-2.49-1.32-3.4l-3.58-1.25c-10.7-.66-16.52-5.25-17.45-13.79.7-8.59,5.53-13.18,14.49-13.78h.55c6.88,0,12.57,2.14,17.06,6.42m18.67,14.57c-.07.6-.13,1.18-.15,1.72-.02.55-.04,1.08-.04,1.6,0,3.73.9,6.7,2.69,8.89,2.23,1.56,4.42,2.35,6.55,2.35,1.68,0,3.34-.47,4.98-1.41,3.82-2.82,5.73-6.56,5.73-11.24,0-.62-.04-1.27-.12-1.91-1.19-6.77-4.88-10.42-11.06-10.97-5.74,1.18-8.61,4.39-8.61,9.63v.67c0,.21,0,.43.03.66Zm11.06-20.68c.68,0,1.31.03,1.89.1s1.1.14,1.54.21c10.05,3.68,15.08,10.81,15.08,21.38,0,.94-.05,1.91-.12,2.9-.7,9.13-4.75,15.35-12.15,18.64-2.31.9-4.77,1.38-7.25,1.41-3.84,0-7.3-1.3-10.36-3.92v16.29h-9.35v-56.23h9.35v3.29c2.49-2.11,5.51-3.52,8.73-4.08,0,0,2.65,0,2.65,0Zm47.61,24.6h-.93c-.44.1-.88.15-1.32.16h-.23l-.62.16h-.47c-.13.1-.3.16-.47.16h-.47l-2.49.62h-.47c-.72.42-1.35.68-1.87.78-1.69,1.62-2.53,3.18-2.53,4.7,0,1.38.69,2.74,2.07,4.07,2,1.23,3.95,1.84,5.84,1.84,2.42,0,4.73-.98,6.94-2.93.13-.45.34-.87.62-1.25l.15-.47-.15-.62v-7.36h-3.12c-.13.11-.3.16-.47.16m9.98-19.9l.47.94c1.21,1.51,2,3.08,2.34,4.7.1.68.18,1.31.23,1.9.05.59.07,1.1.07,1.55v20.67c.96,1.91,2.36,3.06,4.21,3.45l-.32.47c-.1.18-.21.28-.31.31l-.15.47-.32.31c-.23.52-.54,1-.93,1.41-.36.97-.83,1.7-1.4,2.19-.36.81-.78,1.6-1.25,2.35-3.04-.79-5.43-2.2-7.17-4.23h-.47c-3.35,2.43-6.81,3.64-10.36,3.64-1.93,0-3.82-.32-5.69-.98-5.58-2.01-8.96-5.66-10.13-10.97v-.2c0-10.1,5.88-15.15,17.65-15.15h.12c.24-.11.51-.16.77-.16l.47-.16h1.09l.47-.16h.47l3.9-.47c.05-.26.07-.52.07-.78v-.78c0-4.36-2.3-6.54-6.9-6.54-3.19,0-7.57,1.08-13.12,3.25l-.62-1.41-.31-.94-.31-.31-.16-.31-.31-.94c-.27-.44-.48-.91-.62-1.41-.51-.65-.88-1.4-1.1-2.19l.47-.16.31-.16.47-.16.31-.31h.47c.11-.1.2-.15.28-.15h.04c.93-.5,1.76-.87,2.49-1.1l.78-.16c.57-.26,1.09-.42,1.56-.47l1.25-.31c.9-.36,1.79-.57,2.65-.62l3.42-.63c.52-.05,1.02-.1,1.5-.14.47-.04.95-.06,1.42-.06,4.96,0,9.03,1.63,12.2,4.9m51.46,6.89l-1.72.62c-.38.31-.8.57-1.25.78l-.31.15-.93.32c-.36.31-.79.53-1.25.62l-2.49,1.41c-2.26-4.44-5.48-6.66-9.66-6.66-.72,0-1.5.08-2.34.24l-.47.31-.47.16-1.72.94c-.42.5-.81.94-1.17,1.34-.36.39-.7.73-1.01,1.01-1.64,3.37-2.45,6.6-2.45,9.72,0,3.29.92,6.47,2.77,9.55,1.95,2.54,4.32,3.8,7.13,3.8h.41c.14,0,.27-.01.41-.03,4.24-.68,7.15-2.88,8.73-6.58l1.55.94.62.31c.57.16.99.31,1.25.47l.62.31.32.31,3.42,1.56c-4.16,7.39-9.88,11.08-17.18,11.08-.57,0-1.16-.03-1.75-.07-.6-.05-1.2-.12-1.8-.2-9.3-1.95-14.59-7.85-15.89-17.7-.15-1.3-.23-2.61-.23-3.92,0-4.62,1.06-8.8,3.2-12.53,3.24-5.87,8.23-9.01,14.95-9.4,8.91.21,15.14,3.91,18.7,11.13m16.52,7.05h18.86v-.47c-.1-.3-.15-.62-.15-.94v-.31c-.24-.5-.4-1.03-.47-1.57-1.92-4.46-5.09-6.7-9.5-6.74-5.56,1.34-8.47,4.67-8.73,10.02m28.36-.16l.15,2.35c.11.13.16.28.16.47v4.7h-28.52c.6,5.33,3.3,8.46,8.1,9.4.78.07,1.55.11,2.3.11,3.93,0,7.26-1.29,10.01-3.87.34.57.75,1.04,1.25,1.41l.15.47.47.47c.36.34.68.66.93.96.26.3.47.61.62.93.18.1.28.21.31.31l2.18,2.5c-4.93,4.15-10.2,6.23-15.77,6.23-.96,0-1.94-.07-2.92-.2-1-.13-1.98-.31-2.96-.55-8.98-3-13.92-9.48-14.8-19.43,0-.26-.01-.52-.02-.78,0-.25-.01-.5-.01-.75,0-13.6,6.09-21.34,18.27-23.22,12.1.42,18.8,6.58,20.1,18.49M155.45,69.65l-35.4-35.57,4.26-4.28L94.67,0l-43.61,43.84,28.45,28.59,10.24-10.29,7.45,7.49-27.92,28.06-7.45-7.49,10.23-10.28-28.45-28.6L0,95.17l29.64,29.8,4.39-4.42,35.39,35.57-4.39,4.41,29.65,29.8,43.61-43.84-28.45-28.6-10.23,10.29-7.45-7.49,27.92-28.06,7.45,7.49-10.23,10.29,28.45,28.59,43.61-43.84-29.65-29.79-4.25,4.28Z"/>
    </g>
  </g>
</svg>