<?xml version="1.0" standalone="no"?>
<!DOCTYPE svg PUBLIC "-//W3C//DTD SVG 20010904//EN"
 "http://www.w3.org/TR/2001/REC-SVG-20010904/DTD/svg10.dtd">
<svg version="1.0" xmlns="http://www.w3.org/2000/svg"
 width="1949.000000pt" height="620.000000pt" viewBox="0 0 1949.000000 620.000000"
 preserveAspectRatio="xMidYMid meet">
<metadata>
Created by potrace 1.13, written by Peter Selinger 2001-2015
</metadata>
<g transform="translate(0.000000,620.000000) scale(0.100000,-0.100000)"
fill="#000000" stroke="none">
<path d="M2820 6193 c-747 -77 -1401 -383 -1915 -898 -472 -472 -771 -1064
-877 -1740 -20 -123 -22 -179 -22 -455 0 -276 2 -332 22 -455 106 -676 405
-1268 877 -1740 470 -471 1052 -765 1735 -878 l135 -22 8358 -2 8357 -3 -3
1712 c-3 1713 -3 1713 -25 1848 -111 681 -406 1265 -877 1735 -470 471 -1052
765 -1735 878 l-135 22 -6930 1 c-3812 0 -6946 -1 -6965 -3z m840 -1022 c134
-133 248 -241 252 -241 20 0 3 -28 -52 -82 -33 -33 -60 -68 -60 -78 0 -17 206
-226 790 -799 137 -134 201 -191 217 -191 15 0 43 20 77 55 29 30 59 55 66 55
7 0 132 -119 279 -264 146 -146 329 -326 406 -401 120 -119 137 -139 123 -149
-9 -7 -285 -277 -613 -601 -328 -325 -600 -590 -605 -590 -10 0 -227 208 -550
530 -227 225 -268 270 -260 285 5 10 14 20 19 22 22 7 221 212 221 227 0 9
-29 45 -65 80 -52 51 -70 62 -88 57 -25 -7 -717 -686 -717 -704 0 -19 127
-142 147 -142 10 0 74 55 145 125 69 69 129 125 132 125 4 0 60 -53 124 -117
65 -65 248 -246 406 -402 l288 -285 -403 -399 c-222 -219 -501 -495 -619 -612
l-215 -214 -270 266 c-148 146 -332 327 -407 401 -76 75 -138 140 -138 146 1
6 28 35 60 65 33 30 60 62 60 72 0 16 -184 201 -758 765 -122 120 -229 222
-237 227 -20 11 -43 -3 -98 -62 -26 -28 -52 -51 -58 -51 -5 0 -136 126 -292
279 -155 154 -338 334 -407 401 l-124 121 204 201 c113 110 391 383 618 607
227 223 416 407 420 409 4 1 45 -35 89 -80 45 -46 226 -224 402 -397 177 -173
321 -319 321 -325 0 -6 -56 -65 -125 -132 -69 -66 -125 -129 -125 -139 0 -26
156 -177 179 -173 23 4 721 687 721 706 0 21 -160 172 -182 172 -13 0 -65 -44
-141 -120 -66 -66 -124 -119 -128 -118 -17 7 -809 793 -809 803 0 6 156 164
346 351 190 186 466 457 612 601 l267 262 155 -154 c85 -84 265 -262 400 -394z
m3382 -38 c17 -15 18 -49 18 -655 l0 -638 288 0 c211 0 291 -3 300 -12 8 -8
12 -53 12 -138 0 -85 -4 -130 -12 -138 -17 -17 -889 -17 -906 0 -17 17 -17
1569 0 1586 8 8 55 12 147 12 111 0 138 -3 153 -17z m2307 -18 c57 -39 75 -79
69 -153 -7 -102 -70 -159 -177 -161 -170 -3 -234 235 -88 325 36 21 50 24 100
20 41 -3 69 -12 96 -31z m2013 18 c16 -15 18 -36 18 -244 l0 -229 58 30 c209
106 456 35 563 -162 l34 -63 3 -448 c2 -332 0 -452 -9 -463 -15 -19 -269 -20
-287 -2 -9 9 -12 108 -12 383 0 365 0 371 -22 415 -32 63 -81 93 -136 86 -50
-7 -109 -35 -139 -68 -51 -54 -53 -72 -53 -444 0 -309 -2 -349 -17 -366 -14
-16 -33 -18 -143 -18 -85 0 -130 4 -138 12 -17 17 -17 1569 0 1586 8 8 53 12
137 12 102 0 128 -3 143 -17z m-2892 -429 c184 -54 301 -177 350 -368 25 -99
38 -299 20 -321 -11 -13 -62 -15 -372 -15 l-359 0 7 -22 c12 -42 42 -93 66
-115 78 -73 239 -71 361 7 26 16 56 30 66 30 10 0 51 -37 94 -87 98 -113 99
-127 16 -184 -151 -102 -316 -139 -484 -108 -129 24 -266 110 -341 215 -151
211 -151 567 0 778 68 95 159 156 293 196 79 23 192 21 283 -6z m1770 16 c30
-6 76 -21 105 -34 l51 -23 17 24 c17 22 24 23 141 23 107 0 125 -2 140 -19 15
-17 17 -66 14 -617 l-3 -599 -32 -66 c-89 -179 -200 -233 -483 -234 -167 0
-260 20 -387 82 -40 19 -73 36 -73 37 0 1 23 53 50 116 28 63 50 115 50 116 0
1 9 4 19 7 11 2 62 -11 113 -31 84 -32 103 -36 193 -36 81 0 111 4 158 23 70
27 87 55 87 140 l0 60 -33 -19 c-58 -34 -154 -53 -241 -47 -202 14 -369 169
-422 392 -21 86 -23 231 -5 305 32 136 138 288 240 348 100 58 188 73 301 52z
m-852 -22 c17 -17 17 -1129 0 -1146 -17 -17 -269 -17 -286 0 -9 9 -12 149 -12
567 0 502 2 556 17 573 14 16 33 18 143 18 85 0 130 -4 138 -12z m-2346 -2065
c17 -15 18 -38 18 -305 l0 -288 315 0 315 0 0 293 c0 215 3 296 12 305 8 8 55
12 147 12 111 0 138 -3 153 -17 17 -15 18 -53 18 -786 0 -703 -1 -772 -17
-789 -14 -16 -33 -18 -153 -18 -92 0 -140 4 -148 12 -9 9 -12 100 -12 350 l0
338 -315 0 -315 0 0 -332 c0 -294 -2 -333 -17 -350 -14 -16 -33 -18 -153 -18
-92 0 -140 4 -148 12 -17 17 -17 1569 0 1586 8 8 55 12 147 12 111 0 138 -3
153 -17z m4137 4 c7 -10 12 -138 13 -411 l3 -397 147 148 c80 81 164 167 185
191 l39 42 170 0 171 0 13 -25 c14 -26 10 -30 -200 -240 l-214 -214 30 -41
c16 -22 45 -65 64 -95 19 -29 104 -155 188 -280 191 -283 192 -269 -20 -273
l-144 -3 -64 100 c-127 195 -252 381 -257 381 -2 0 -29 -26 -59 -57 l-54 -57
0 -171 c0 -120 -4 -175 -12 -183 -8 -8 -53 -12 -137 -12 -102 0 -128 3 -143
17 -17 15 -18 53 -18 786 0 703 1 772 17 789 14 16 33 18 143 18 94 0 130 -3
139 -13z m-2156 -412 c127 -33 205 -91 262 -196 l40 -74 5 -328 5 -329 28 -24
c15 -13 35 -24 42 -24 8 0 17 -11 21 -25 5 -19 -8 -47 -57 -124 -40 -63 -70
-101 -81 -101 -31 0 -125 40 -162 69 l-36 29 -62 -33 c-84 -44 -155 -59 -242
-52 -139 11 -266 75 -338 172 -55 73 -72 131 -66 230 11 164 93 273 246 326
33 12 120 26 207 35 207 20 199 17 190 62 -19 104 -93 131 -262 96 -42 -8
-113 -29 -157 -45 -44 -16 -81 -29 -83 -29 -5 0 -103 211 -108 234 -6 23 5 29
135 79 60 23 101 34 205 56 65 14 207 12 268 -4z m3655 0 c95 -19 221 -80 285
-137 l48 -43 -41 -45 c-23 -25 -64 -70 -91 -101 l-50 -57 -67 39 c-120 70
-223 95 -275 68 -39 -20 -77 -62 -77 -84 0 -40 32 -55 170 -80 212 -39 318
-104 378 -233 23 -49 27 -70 27 -152 0 -86 -3 -101 -31 -161 -54 -113 -132
-174 -269 -209 -143 -37 -288 -20 -430 49 -96 47 -225 136 -225 156 0 8 36 55
81 105 94 104 106 108 176 53 86 -65 147 -87 243 -88 128 0 166 29 146 110 -7
28 -62 48 -174 65 -222 32 -352 138 -392 320 -23 103 21 242 102 322 102 103
275 141 466 103z m2545 0 c127 -33 205 -91 262 -196 l40 -74 5 -328 5 -329 28
-24 c15 -13 35 -24 42 -24 8 0 17 -11 21 -25 5 -19 -8 -47 -57 -124 -40 -63
-70 -101 -81 -101 -31 0 -125 40 -162 69 l-36 29 -62 -33 c-84 -44 -155 -59
-242 -52 -139 11 -266 75 -338 172 -55 73 -72 131 -66 230 11 164 93 273 246
326 33 12 120 26 207 35 207 20 199 17 190 62 -19 104 -93 131 -262 96 -42 -8
-113 -29 -157 -45 -44 -16 -81 -29 -83 -29 -5 0 -103 211 -108 234 -6 23 5 29
135 79 60 23 101 34 205 56 65 14 207 12 268 -4z m-1199 -29 c235 -114 350
-323 333 -606 -15 -234 -105 -399 -273 -500 -139 -84 -346 -92 -471 -19 l-33
18 0 -182 c0 -129 -4 -187 -12 -195 -17 -17 -259 -17 -276 0 -19 19 -17 1471
2 1487 9 8 56 11 141 9 133 -3 130 -2 152 -46 1 -2 13 4 27 13 52 35 138 54
240 54 93 1 103 -1 170 -33z m3706 8 c184 -54 301 -177 350 -368 25 -99 38
-299 20 -321 -11 -13 -62 -15 -372 -15 l-359 0 7 -22 c12 -42 42 -93 66 -115
78 -73 239 -71 361 7 26 16 56 30 66 30 10 0 51 -37 94 -87 98 -113 99 -127
16 -184 -151 -102 -316 -139 -484 -108 -129 24 -266 110 -341 215 -151 211
-151 567 0 778 68 95 159 156 293 196 79 23 192 21 283 -6z m-7445 1 c139 -29
269 -118 343 -233 49 -77 44 -87 -86 -151 -92 -45 -112 -52 -130 -42 -11 6
-23 20 -27 30 -10 32 -100 109 -141 120 -147 41 -251 -51 -283 -249 -21 -130
33 -288 117 -341 94 -60 234 -25 297 73 17 26 38 50 48 53 26 10 224 -89 232
-115 16 -51 -138 -219 -247 -270 -77 -36 -146 -50 -248 -50 -187 0 -368 109
-447 271 -48 97 -66 185 -66 319 0 137 17 210 76 325 112 215 319 311 562 260z
m6200 0 c139 -29 269 -118 343 -233 49 -77 44 -87 -86 -151 -92 -45 -112 -52
-130 -42 -11 6 -23 20 -27 30 -10 32 -100 109 -141 120 -147 41 -251 -51 -283
-249 -21 -130 33 -288 117 -341 94 -60 234 -25 297 73 17 26 38 50 48 53 26
10 224 -89 232 -115 16 -51 -138 -219 -247 -270 -77 -36 -146 -50 -248 -50
-187 0 -368 109 -447 271 -48 97 -66 185 -66 319 0 137 17 210 76 325 112 215
319 311 562 260z"/>
<path d="M8256 4434 c-58 -21 -106 -62 -127 -108 -36 -80 -46 -76 192 -76
l210 0 -6 23 c-23 75 -85 143 -154 166 -43 14 -66 13 -115 -5z"/>
<path d="M10118 4414 c-64 -27 -118 -136 -118 -238 0 -148 86 -256 206 -256
45 0 115 33 143 67 66 80 69 268 6 364 -42 65 -160 96 -237 63z"/>
<path d="M8945 1534 c-195 -22 -251 -50 -262 -131 -7 -51 29 -95 94 -117 61
-21 108 -20 160 3 76 35 83 48 83 156 0 106 7 98 -75 89z"/>
<path d="M15145 1534 c-195 -22 -251 -50 -262 -131 -7 -51 29 -95 94 -117 61
-21 108 -20 160 3 76 35 83 48 83 156 0 106 7 98 -75 89z"/>
<path d="M13727 1905 c-101 -37 -132 -91 -141 -241 -7 -112 4 -186 34 -250 17
-34 31 -46 79 -68 102 -46 169 -31 253 54 45 46 60 70 74 116 24 84 15 177
-25 259 -35 71 -73 106 -140 130 -52 18 -84 18 -134 0z"/>
<path d="M17516 1934 c-58 -21 -106 -62 -127 -108 -36 -80 -46 -76 192 -76
l210 0 -6 23 c-23 75 -85 143 -154 166 -43 14 -66 13 -115 -5z"/>
</g>
</svg>
